<svg xmlns="http://www.w3.org/2000/svg" viewBox="0 0 512 512"><circle cx="256" cy="256" r="256" fill="#f2414e"/><path fill="#fff" d="M142.3 322.51c-9.37 0-18.02-2.38-25.93-7.15-7.92-4.76-14.21-11.14-18.9-19.13s-7.03-16.75-7.03-26.28 2.11-18.67 6.34-26.51c4.22-7.84 10.1-14.06 17.63-18.67s16.21-6.92 26.05-6.92 17.94 2.27 24.78 6.8 12.06 10.14 15.67 16.83c3.61 6.68 5.42 13.41 5.42 20.17 0 3.54-.73 5.84-2.19 6.92s-4.34 1.61-8.64 1.61h-52.09c-.92 0-1.38.54-1.38 1.61 0 5.53 1.04 10.76 3.11 15.67 2.07 4.92 5.15 8.91 9.22 11.99s9.03 4.61 14.87 4.61c5.22 0 10.06-.77 14.52-2.31 3.07-.92 5.45-1.76 7.15-2.54 1.69-.77 3.26-1.65 4.73-2.65 1.46-1 3.19-2.26 5.19-3.8 1.38.62 2.07 2.07 2.07 4.38 0 2-.31 3.54-.92 4.61-.92 2.46-3.34 5.3-7.26 8.53s-8.68 6.07-14.29 8.53-11.64 3.69-18.09 3.69h-.03Zm-18.67-65h29.27c2.15 0 3.23-1.46 3.23-4.38 0-5.84-1.58-11.06-4.72-15.67-3.15-4.61-7.19-6.92-12.1-6.92-4.46 0-7.95 1.58-10.49 4.73-2.54 3.15-4.3 6.65-5.3 10.49s-1.5 6.99-1.5 9.45c0 1.54.54 2.31 1.61 2.31Zm136.36 66.38c-.92 0-1.61-.39-2.07-1.15l-62.46-123.31c-2-3.99-3.88-7.49-5.65-10.49-1.77-3-3.42-5.42-4.96-7.26-1.23-1.53-3.34-2.73-6.34-3.57-3-.84-5.5-1.27-7.49-1.27-.62 0-.92-1.46-.92-4.38 0-2.46.15-3.84.46-4.15l32.73 1.38c2.46 0 12.91-.46 31.35-1.38.31.92.5 2.54.58 4.84.08 2.31-.12 3.54-.58 3.69-7.07 0-10.6 2.61-10.6 7.84l2.77 7.14 42.41 84.13c.77 2 1.92 1.61 3.46-1.15l14.29-25.35-25.35-50.02c-4.76-9.53-8.07-15.13-9.91-16.83-3.84-3.84-8.3-5.76-13.37-5.76-.62 0-.92-1.46-.92-4.38 0-2.46.15-3.84.46-4.15l32.04 1.38c1.84 0 11.99-.46 30.43-1.38.31.92.5 2.54.58 4.84.08 2.31-.12 3.54-.58 3.69-2.46 0-4.84.58-7.15 1.73s-3.46 3.04-3.46 5.65l2.77 7.15 13.37 26.51 11.06-21.9c1.69-3.07 2.88-5.65 3.57-7.72s1.04-3.49 1.04-4.26c0-1.84-.92-3.3-2.77-4.38-1.84-1.07-4.07-1.84-6.68-2.31-2.61-.46-5.15-.69-7.61-.69-.31 0-.58-.61-.81-1.84s-.27-2.54-.12-3.92.38-2.23.69-2.54c7.38.46 13.37.85 17.98 1.15 4.61.31 7.76.39 9.45.23l28.81-1.38c.31.92.5 2.5.58 4.73s-.11 3.42-.58 3.57c-2.3 0-5.3.73-8.99 2.19s-6.3 3.04-7.84 4.72c-4.3 4.46-8.61 11.06-12.91 19.82l-16.13 31.81 20.05 39.41c.77 1.69 1.76 1.38 3-.92l39.41-78.14c2.76-5.53 4.15-9.37 4.15-11.53 0-1.84-1-3.3-3-4.38-2-1.07-4.26-1.84-6.8-2.31s-4.73-.69-6.57-.69c-.31 0-.58-.61-.81-1.84s-.27-2.54-.11-3.92c.15-1.38.38-2.23.69-2.54 7.38.46 13.37.85 17.98 1.15 4.61.31 7.76.39 9.45.23l28.81-1.38c.46 1.08.69 3 .69 5.76 0 1.69-.23 2.54-.69 2.54-2.3 0-5.23.69-8.76 2.07-3.54 1.38-6.07 2.85-7.61 4.38-4.3 4.46-8.76 11.22-13.37 20.28L334.2 316.5c-2.61 4.92-5.23 7.38-7.84 7.38-1.23 0-2.07-.39-2.54-1.15l-28.35-55.55-27.66 49.33c-2.77 4.92-5.38 7.38-7.84 7.38h.02Z"/></svg>